<?xml version="1.0" standalone="no"?><!DOCTYPE svg PUBLIC "-//W3C//DTD SVG 1.1//EN" "http://www.w3.org/Graphics/SVG/1.1/DTD/svg11.dtd" ><svg xmlns="http://www.w3.org/2000/svg"><metadata></metadata><defs><font id="2.100;IMPA;Lobster-Regular" horiz-adv-x="962"><font-face font-family="Lobster" font-weight="400" font-stretch="normal" units-per-em="1000" panose-1="0 0 5 0 0 0 0 0 0 0" ascent="1000" descent="-250" x-height="0" bbox="-208 -250 1032 1000" underline-thickness="50" underline-position="-75" unicode-range="U+000d-2019" /><missing-glyph horiz-adv-x="810" d="M267 1000 l543 0 l-268 -1250 l-542 0 l267 1250 ZM510 -210 l252 1170 l-463 0 l-252 -1170 l463 0 ZM348 286 q0 44 17 74 q17 30 49 65 q28 32 41.5 55 q13.5 23 13.5 54 q0 28 -11.5 43 q-11.5 15 -31.5 15 q-21 0 -35 -15 q-14 -15 -14 -38 q0 -16 8.5 -29.5 q8.5 -13.5 21.5 -20.5 l0 -4 q-20 -20 -48 -20 q-21 0 -33.5 15 q-12.5 15 -12.5 39 q0 45 38 76 q38 31 94 31 q52 0 81.5 -24 q29.5 -24 29.5 -65 q0 -36 -20.5 -62 q-20.5 -26 -60.5 -58 q-43 -36 -64 -63 q-21 -27 -21 -68 l-42 0 ZM355 150 q-19 0 -29.5 10.5 q-10.5 10.5 -10.5 29.5 q0 18 10.5 29 q10.5 11 29.5 11 q18 0 29 -11 q11 -11 11 -29 q0 -19 -11 -29.5 q-11 -10.5 -29 -10.5 Z" /><glyph glyph-name="A" unicode="A" d="M218 -114 q-37 0 -65 6 q-28 6 -48.5 29 q-20.5 23 -20.5 71 q0 67 40.5 180 q40.5 113 106.5 227 q-50 -3 -79 -15 q-29 -12 -38 -37 q4 0 8.5 -10 q4.5 -10 4.5 -21 q0 -18 -16 -28.5 q-16 -10.5 -40 -10.5 q-28 0 -45 15 q-17 15 -17 43 q0 34 26.5 62 q26.5 28 73.5 44.5 q47 16.5 104 16.5 q21 0 52 -3 q82 130 173.5 212.5 q91.5 82.5 174.5 82.5 q48 0 79 -14 l-157 -736 l-144 0 l77 363 q-37 17 -68 25 q-31 8 -66 11 q-57 -123 -93.5 -251.5 q-36.5 -128.5 -36.5 -205.5 q0 -38 14 -56 ZM535 679 q-43 -23 -89.5 -85.5 q-46.5 -62.5 -90.5 -151.5 q72 -14 122 -35 l58 272 Z" /><glyph glyph-name="B" unicode="B" d="M387 -17 q-40 0 -69.5 16.5 q-29.5 16.5 -29.5 57.5 q0 26 13 58 q18 -20 33.5 -28 q15.5 -8 33.5 -8 q50 0 74.5 56 q24.5 56 24.5 124 q0 127 -95 127 q-27 0 -46 -3 l-82 -383 l-144 0 l136 636 l148 20 l-47 -222 l6 0 q38 0 71 24.5 q33 24.5 53 62 q20 37.5 20 75.5 q0 46 -32.5 77 q-32.5 31 -99.5 31 q-61 0 -119 -27.5 q-58 -27.5 -94.5 -82.5 q-36.5 -55 -36.5 -133 q0 -37 7 -51.5 q7 -14.5 7 -16.5 q-53 0 -80 21.5 q-27 21.5 -27 70.5 q0 68 51 129 q51 61 135 98.5 q84 37.5 177 37.5 q70 0 118 -22 q48 -22 71.5 -58 q23.5 -36 23.5 -79 q0 -46 -26 -89 q-26 -43 -74 -70 q60 -11 89 -55.5 q29 -44.5 29 -105.5 q0 -57 -21.5 -124 q-21.5 -67 -71 -115.5 q-49.5 -48.5 -126.5 -48.5 Z" /><glyph glyph-name="C" unicode="C" d="M238 -16 q-113 0 -166 57 q-53 57 -53 189 q0 105 35.5 226 q35.5 121 114 207.5 q78.5 86.5 199.5 86.5 q75 0 121 -33 q46 -33 46 -101 q0 -43 -17 -67.5 q-17 -24.5 -53 -24.5 q-36 0 -57 26 q18 9 32 36 q14 27 14 56 q0 27 -14.5 44 q-14.5 17 -46.5 17 q-53 0 -101 -72.5 q-48 -72.5 -77.5 -182.5 q-29.5 -110 -29.5 -212 q0 -76 26 -116 q26 -40 94 -40 q59 0 109 26 q50 26 86 74 l23 -10 q-25 -63 -74 -105 q-49 -42 -105 -61.5 q-56 -19.5 -106 -19.5 Z" /><glyph glyph-name="D" unicode="D" d="M368 -13 q-60 0 -122 53 l-8 -40 l-144 0 l136 636 l148 20 l-120 -561 q28 -20 57 -20 q57 0 100.5 66 q43.5 66 67.5 168 q24 102 24 206 q0 98 -38.5 143.5 q-38.5 45.5 -107.5 45.5 q-75 0 -134.5 -29.5 q-59.5 -29.5 -93.5 -84.5 q-34 -55 -34 -129 q0 -37 7 -51.5 q7 -14.5 7 -16.5 q-52 0 -79.5 22 q-27.5 22 -27.5 71 q0 68 51 129 q51 61 136.5 98 q85.5 37 184.5 37 q137 0 202 -81 q65 -81 65 -207 q0 -114 -38.5 -224.5 q-38.5 -110.5 -102.5 -180.5 q-64 -70 -136 -70 Z" /><glyph glyph-name="E" unicode="E" d="M191 -18 q-91 0 -137.5 50 q-46.5 50 -46.5 126 q0 54 22.5 108.5 q22.5 54.5 64.5 95.5 q42 41 98 55 q-31 22 -46 53.5 q-15 31.5 -15 66.5 q0 52 28.5 102 q28.5 50 79 81.5 q50.5 31.5 111.5 31.5 q63 0 103 -33 q40 -33 40 -92 q0 -44 -22 -74 q-22 -30 -52 -30 q-27 0 -47 27 q18 6 31 33 q13 27 13 54 q0 29 -16 42.5 q-16 13.5 -39 13.5 q-29 0 -52.5 -20.5 q-23.5 -20.5 -36.5 -53 q-13 -32.5 -13 -67.5 q0 -48 25 -84.5 q25 -36.5 76 -49.5 q-51 -11 -92 -50 q-41 -39 -64 -90.5 q-23 -51.5 -23 -98.5 q0 -45 23.5 -73 q23.5 -28 71.5 -28 q50 0 104.5 27.5 q54.5 27.5 80.5 74.5 l23 -10 q-39 -86 -120 -137 q-81 -51 -173 -51 Z" /><glyph glyph-name="F" unicode="F" d="M232 668 q-63 -2 -96.5 -48 q-33.5 -46 -33.5 -159 q0 -37 7 -51.5 q7 -14.5 7 -16.5 q-54 0 -80.5 22.5 q-26.5 22.5 -26.5 74.5 q0 71 35 129.5 q35 58.5 111.5 94.5 q76.5 36 194.5 36 q24 0 64 -5 q72 -7 102 -7 q53 0 90 12 q-3 -9 -11 -39.5 q-8 -30.5 -28.5 -52 q-20.5 -21.5 -55.5 -28.5 q-59 0 -140 19 l-42 -199 l146 0 l-16 -74 l-146 0 l-81 -376 l-144 0 l144 668 Z" /><glyph glyph-name="G" unicode="G" d="M231 -207 q-73 0 -117.5 37.5 q-44.5 37.5 -44.5 98.5 q0 38 18 70 q18 32 49 50.5 q31 18.5 68 18.5 q38 0 61.5 -19 q23.5 -19 23.5 -50 q0 -24 -11 -38 q-9 12 -24.5 19 q-15.5 7 -32.5 7 q-30 0 -49 -20 q-19 -20 -19 -52 q0 -32 18.5 -52 q18.5 -20 46.5 -20 q35 0 60 31 q25 31 38 92 l50 221 l-4 0 q-27 -38 -65.5 -58 q-38.5 -20 -84.5 -20 q-58 0 -102 31 q-44 31 -67.5 88.5 q-23.5 57.5 -23.5 133.5 q0 110 48 200.5 q48 90.5 132 142.5 q84 52 185 52 q85 0 134.5 -37 q49.5 -37 49.5 -101 q0 -43 -21 -69 q-21 -26 -55 -26 q-19 0 -35.5 8 q-16.5 8 -27.5 23 q18 12 30.5 38.5 q12.5 26.5 12.5 53.5 q0 30 -17.5 46.5 q-17.5 16.5 -49.5 16.5 q-58 0 -112 -51.5 q-54 -51.5 -87 -134.5 q-33 -83 -33 -174 q0 -75 24 -114.5 q24 -39.5 69 -39.5 q54 0 95.5 57 q41.5 57 66.5 166 l118 -1 l-73 -336 q-32 -149 -90.5 -219 q-58.5 -70 -151.5 -70 Z" /><glyph glyph-name="H" unicode="H" d="M245 680 q-67 -28 -103.5 -84 q-36.5 -56 -36.5 -135 q0 -37 7 -51.5 q7 -14.5 7 -16.5 q-54 0 -80.5 22.5 q-26.5 22.5 -26.5 74.5 q0 64 52.5 124.5 q52.5 60.5 134.5 98 q82 37.5 164 37.5 q14 0 40 -2 l-64 -298 l147 0 l64 298 l144 0 l-159 -748 l-144 0 l80 376 l-147 0 l-80 -376 l-144 0 l145 680 Z" /><glyph glyph-name="I" unicode="I" d="M239 679 q-67 -27 -103.5 -82.5 q-36.5 -55.5 -36.5 -135.5 q0 -37 7 -51.5 q7 -14.5 7 -16.5 q-54 0 -80.5 22.5 q-26.5 22.5 -26.5 74.5 q0 64 52.5 124.5 q52.5 60.5 134.5 98 q82 37.5 164 37.5 q14 0 40 -2 l-159 -748 l-144 0 l145 679 Z" /><glyph glyph-name="J" unicode="J" d="M165 -207 q-71 0 -109.5 38.5 q-38.5 38.5 -38.5 102.5 q0 54 33 94 q33 40 89 40 q43 0 70.5 -12.5 q27.5 -12.5 27.5 -54.5 q0 -18 -6 -40 q-18 15 -31 20.5 q-13 5.5 -29 5.5 q-33 0 -51.5 -22 q-18.5 -22 -18.5 -52 q0 -35 21 -52.5 q21 -17.5 47 -17.5 q24 0 40.5 9.5 q16.5 9.5 29.5 36 q13 26.5 25 77.5 l157 714 q-67 -27 -104 -83 q-37 -56 -37 -136 q0 -37 7 -51.5 q7 -14.5 7 -16.5 q-54 0 -80.5 22.5 q-26.5 22.5 -26.5 74.5 q0 64 52.5 124.5 q52.5 60.5 134.5 98 q82 37.5 164 37.5 l40 0 l-150 -710 q-26 -123 -86 -185 q-60 -62 -177 -62 Z" /><glyph glyph-name="K" unicode="K" d="M436 -17 q-78 0 -78 67 q0 22 6.5 50.5 q6.5 28.5 18.5 73.5 q14 47 21 80 q7 33 7 59 q0 68 -60 68 q-17 0 -33 -4 l-80 -377 l-144 0 l145 680 q-67 -28 -103.5 -84 q-36.5 -56 -36.5 -135 q0 -37 7 -51.5 q7 -14.5 7 -16.5 q-54 0 -80.5 22.5 q-26.5 22.5 -26.5 74.5 q0 64 52.5 124.5 q52.5 60.5 134.5 98 q82 37.5 164 37.5 q14 0 40 -2 l-65 -306 l103 138 q123 166 124 165 l105 0 l-278 -320 l35 1 q68 0 96 -28.5 q28 -28.5 28 -78.5 q0 -29 -7 -61.5 q-7 -32.5 -20 -80.5 q-8 -31 -15 -61 q-7 -30 -7 -50 q0 -23 10.5 -41 q10.5 -18 28.5 -25 q-61 -17 -99 -17 Z" /><glyph glyph-name="L" unicode="L" d="M559 -250 q-45 0 -88.5 25.5 q-43.5 25.5 -110.5 78.5 q-50 40 -85.5 64.5 q-35.5 24.5 -77 41.5 q-41.5 17 -84.5 17 q-15 0 -23 -1 l149 693 q-67 -27 -103.5 -82.5 q-36.5 -55.5 -36.5 -135.5 q0 -37 7 -51.5 q7 -14.5 7 -16.5 q-54 0 -80.5 22.5 q-26.5 22.5 -26.5 74.5 q0 64 52.5 124.5 q52.5 60.5 134.5 98 q82 37.5 164 37.5 q14 0 40 -2 l-154 -718 q28 -7 57.5 -20.5 q29.5 -13.5 71.5 -36.5 q65 -35 111 -53.5 q46 -18.5 96 -18.5 q45 0 84 16 q-8 -73 -35.5 -115 q-27.5 -42 -68.5 -42 Z" /><glyph glyph-name="M" unicode="M" d="M321 687 q-76 -25 -117.5 -82.5 q-41.5 -57.5 -41.5 -142.5 q0 -38 7 -52 q7 -14 7 -17 q-107 0 -107 91 q0 62 47.5 124.5 q47.5 62.5 122 102 q74.5 39.5 148.5 39.5 q37 0 76 -14 l-23 -527 l220 527 l144 0 l-105 -736 l-144 0 l64 449 l-188 -449 l-137 0 l20 451 l-167 -451 l-80 0 l254 687 Z" /><glyph glyph-name="N" unicode="N" d="M243 685 q-68 -24 -103.5 -75.5 q-35.5 -51.5 -35.5 -124.5 q0 -32 7 -58.5 q7 -26.5 20 -43.5 q-64 0 -94.5 26.5 q-30.5 26.5 -30.5 81.5 q0 70 41 130.5 q41 60.5 111 96.5 q70 36 152 36 q23 0 40 -3 q17 -3 39 -11 l120 -535 l112 543 l97 0 l-163 -748 l-138 0 l-116 496 l-114 -496 l-95 0 l151 685 Z" /><glyph glyph-name="O" unicode="O" d="M287 -6 q-84 0 -131.5 48 q-47.5 48 -47.5 153 q0 89 32 200 q32 111 93.5 190 q61.5 79 145.5 79 q30 0 52 -8 q-44 -26 -84.5 -107 q-40.5 -81 -65.5 -181 q-25 -100 -25 -177 q0 -54 14 -85 q14 -31 44 -31 q49 0 97.5 70.5 q48.5 70.5 80 177.5 q31.5 107 31.5 206 q0 62 -10.5 99.5 q-10.5 37.5 -38.5 56.5 q-28 19 -79 19 q-77 0 -143 -31.5 q-66 -31.5 -105.5 -90 q-39.5 -58.5 -39.5 -135.5 q0 -27 5 -39.5 q5 -12.5 5 -14.5 q-50 0 -75.5 20 q-25.5 20 -25.5 64 q0 69 56.5 132 q56.5 63 150 102 q93.5 39 196.5 39 q125 0 181 -68 q56 -68 56 -188 q0 -107 -40 -223 q-40 -116 -123.5 -196.5 q-83.5 -80.5 -205.5 -80.5 Z" /><glyph glyph-name="P" unicode="P" d="M230 636 l148 20 l-71 -334 q48 4 88.5 42 q40.5 38 63.5 94 q23 56 23 110 q0 60 -31 98 q-31 38 -93 38 q-122 0 -190.5 -64 q-68.5 -64 -68.5 -179 q0 -37 7 -51.5 q7 -14.5 7 -16.5 q-54 0 -80.5 22.5 q-26.5 22.5 -26.5 74.5 q0 64 52.5 124.5 q52.5 60.5 134.5 98 q82 37.5 164 37.5 q79 0 132 -27 q53 -27 78.5 -71.5 q25.5 -44.5 25.5 -98.5 q0 -65 -35.5 -127 q-35.5 -62 -101.5 -101.5 q-66 -39.5 -152 -39.5 l-5 0 l-61 -285 l-144 0 l136 636 Z" /><glyph glyph-name="Q" unicode="Q" d="M509 -113 q-41 0 -66 16.5 q-25 16.5 -37.5 41 q-12.5 24.5 -25.5 63.5 q-45 -14 -93 -14 q-84 0 -131.5 48 q-47.5 48 -47.5 153 q0 89 32 200 q32 111 93.5 190 q61.5 79 145.5 79 q30 0 52 -8 q-44 -26 -84.5 -107 q-40.5 -81 -65.5 -181 q-25 -100 -25 -177 l0 -18 q0 -17 2 -25 q36 9 62 9 q45 0 80 -27 q51 66 87 179.5 q36 113.5 36 219.5 q0 62 -10.5 99.5 q-10.5 37.5 -38.5 56.5 q-28 19 -79 19 q-77 0 -143 -31.5 q-66 -31.5 -105.5 -90 q-39.5 -58.5 -39.5 -135.5 q0 -27 5 -39.5 q5 -12.5 5 -14.5 q-50 0 -75.5 20 q-25.5 20 -25.5 64 q0 69 56.5 132 q56.5 63 150 102 q93.5 39 196.5 39 q125 0 181 -68 q56 -68 56 -188 q0 -74 -21 -158.5 q-21 -84.5 -64 -160.5 q-43 -76 -106 -123 q26 -39 54 -60 q28 -21 71 -21 q6 0 22 2 q-19 -49 -43.5 -67.5 q-24.5 -18.5 -59.5 -18.5 ZM314 75 q22 0 38 11 q-20 34 -57 34 q-16 0 -29 -4 q14 -41 48 -41 Z" /><glyph glyph-name="R" unicode="R" d="M436 -17 q-78 0 -78 67 q0 22 6.5 50.5 q6.5 28.5 18.5 73.5 q14 47 21 80 q7 33 7 59 q0 68 -60 68 q-16 0 -33 -4 l-80 -377 l-144 0 l136 636 l148 20 l-49 -231 l8 0 q39 0 72 27 q33 27 51.5 67.5 q18.5 40.5 18.5 79.5 q0 46 -27.5 75.5 q-27.5 29.5 -82.5 29.5 q-81 0 -142 -29 q-61 -29 -94.5 -84 q-33.5 -55 -33.5 -130 q0 -37 7 -51.5 q7 -14.5 7 -16.5 q-54 0 -80.5 22.5 q-26.5 22.5 -26.5 74.5 q0 64 52.5 124.5 q52.5 60.5 134.5 98 q82 37.5 164 37.5 q75 0 126 -22 q51 -22 76 -58.5 q25 -36.5 25 -79.5 q0 -47 -29 -94 q-29 -47 -79 -77 q38 -11 53.5 -36.5 q15.5 -25.5 15.5 -63.5 q0 -29 -7 -61.5 q-7 -32.5 -20 -80.5 q-8 -31 -15 -61 q-7 -30 -7 -50 q0 -23 10.5 -41 q10.5 -18 28.5 -25 q-61 -17 -99 -17 Z" /><glyph glyph-name="S" unicode="S" d="M245 -18 q-63 0 -111 22 q-48 22 -74 61.5 q-26 39.5 -26 91.5 q0 44 18.5 80 q18.5 36 50 57 q31.5 21 69.5 21 q35 0 59 -17.5 q24 -17.5 30 -48.5 q-52 0 -83 -27.5 q-31 -27.5 -31 -74.5 q0 -43 26 -69 q26 -26 69 -26 q53 0 87.5 35.5 q34.5 35.5 34.5 89.5 q0 47 -26 89 q-26 42 -78 102 q-54 62 -81.5 106.5 q-27.5 44.5 -27.5 97.5 q0 52 29 93.5 q29 41.5 80 65.5 q51 24 115 24 q81 0 129.5 -38 q48.5 -38 48.5 -102 q0 -42 -21 -68 q-21 -26 -55 -26 q-38 0 -61 31 q19 14 30 37 q11 23 11 48 q0 32 -19 51 q-19 19 -52 19 q-40 0 -65.5 -28.5 q-25.5 -28.5 -25.5 -72.5 q0 -40 23 -74.5 q23 -34.5 72 -88.5 q40 -43 64.5 -74 q24.5 -31 42 -71.5 q17.5 -40.5 17.5 -87.5 q0 -64 -35.5 -116 q-35.5 -52 -97 -82 q-61.5 -30 -136.5 -30 Z" /><glyph glyph-name="T" unicode="T" d="M299 662 l-12 0 q-89 0 -138.5 -44.5 q-49.5 -44.5 -49.5 -157.5 q0 -37 7 -51.5 q7 -14.5 7 -16.5 q-54 0 -80.5 22.5 q-26.5 22.5 -26.5 74.5 q0 71 35 129.5 q35 58.5 111.5 94.5 q76.5 36 194.5 36 q66 0 142 -12 q64 -11 114 -11 q64 0 116 21 q-2 -65 -33 -96 q-31 -31 -92 -31 q-32 0 -64 5 q-32 5 -91 17 l-138 -642 l-144 0 l142 662 Z" /><glyph glyph-name="U" unicode="U" d="M355 -7 q-99 0 -149.5 48.5 q-50.5 48.5 -50.5 143.5 q0 47 14 105 l102 406 q-86 -23 -134 -81.5 q-48 -58.5 -48 -128.5 q0 -49 26 -95 q-57 0 -88.5 28 q-31.5 28 -31.5 79 q0 65 52.5 124.5 q52.5 59.5 139.5 95.5 q87 36 184 36 q34 0 56 -5 l-122 -462 q-17 -63 -17 -108 q0 -95 78 -95 q112 0 155 206 l100 462 l141 0 l-97 -462 q-32 -147 -110.5 -222 q-78.5 -75 -199.5 -75 Z" /><glyph glyph-name="V" unicode="V" d="M248 683 q-71 -27 -110 -83.5 q-39 -56.5 -39 -138.5 q0 -37 7 -51.5 q7 -14.5 7 -16.5 q-54 0 -80.5 22.5 q-26.5 22.5 -26.5 74.5 q0 64 52.5 124.5 q52.5 60.5 134.5 98 q82 37.5 164 37.5 q14 0 40 -2 l9 -615 l210 612 l70 0 l-278 -745 l-144 0 l-16 683 Z" /><glyph glyph-name="W" unicode="W" d="M248 683 q-71 -27 -110 -83.5 q-39 -56.5 -39 -138.5 q0 -37 7 -51.5 q7 -14.5 7 -16.5 q-54 0 -80.5 22.5 q-26.5 22.5 -26.5 74.5 q0 64 52.5 124.5 q52.5 60.5 134.5 98 q82 37.5 164 37.5 q14 0 40 -2 l9 -615 l210 612 l127 0 l9 -612 l210 612 l70 0 l-278 -745 l-144 0 l-12 509 l-190 -509 l-144 0 l-16 683 Z" /><glyph glyph-name="X" unicode="X" d="M322 332 l-74 351 q-71 -27 -110 -83.5 q-39 -56.5 -39 -138.5 q0 -37 7 -51.5 q7 -14.5 7 -16.5 q-54 0 -80.5 22.5 q-26.5 22.5 -26.5 74.5 q0 64 52.5 124.5 q52.5 60.5 134.5 98 q82 37.5 164 37.5 q14 0 40 -2 l43 -208 l116 205 l70 0 l-168 -291 l94 -454 l-159 0 l-53 250 l-145 -250 l-61 0 l188 332 Z" /><glyph glyph-name="Y" unicode="Y" d="M344 308 l-96 375 q-71 -27 -110 -83.5 q-39 -56.5 -39 -138.5 q0 -37 7 -51.5 q7 -14.5 7 -16.5 q-54 0 -80.5 22.5 q-26.5 22.5 -26.5 74.5 q0 64 52.5 124.5 q52.5 60.5 134.5 98 q82 37.5 164 37.5 q14 0 40 -2 l87 -358 l148 355 l66 0 l-194 -437 l-66 -308 l-160 0 l66 308 Z" /><glyph glyph-name="Z" unicode="Z" d="M361 696 q-21 0 -34 1 l-56 1 q-92 0 -92 -22 q6 0 11.5 -8 q5.5 -8 5.5 -24 q0 -30 -18.5 -43.5 q-18.5 -13.5 -40.5 -13.5 q-27 0 -39 17.5 q-12 17.5 -12 41.5 q0 41 33 72.5 q33 31.5 90 31.5 l343 0 l-345 -685 q28 0 43 -1 l53 -1 q42 0 68.5 4.5 q26.5 4.5 35.5 17.5 q-7 0 -12.5 7.5 q-5.5 7.5 -5.5 23.5 q0 30 18 44 q18 14 42 14 q26 0 38.5 -17 q12.5 -17 12.5 -41 q0 -26 -16 -53 q-16 -27 -45.5 -45 q-29.5 -18 -66.5 -18 l-361 0 l350 696 Z" /><glyph glyph-name="a" unicode="a" d="M120 -6 q-57 0 -95 39 q-38 39 -38 122 q0 74 29.5 155.5 q29.5 81.5 88 138 q58.5 56.5 139.5 56.5 q41 0 61 -14 q20 -14 20 -37 l0 -7 l11 53 l144 0 l-72 -340 q-4 -15 -4 -32 q0 -43 41 -43 q28 0 48.5 26 q20.5 26 32.5 68 l42 0 q-37 -108 -91.5 -146.5 q-54.5 -38.5 -109.5 -38.5 q-42 0 -67.5 23.5 q-25.5 23.5 -30.5 68.5 q-29 -41 -64.5 -66.5 q-35.5 -25.5 -84.5 -25.5 ZM185 91 q25 0 49.5 23.5 q24.5 23.5 33.5 64.5 l48 226 q0 13 -10 25.5 q-10 12.5 -31 12.5 q-40 0 -72 -46.5 q-32 -46.5 -50 -112 q-18 -65.5 -18 -115.5 q0 -50 14.5 -64 q14.5 -14 35.5 -14 Z" /><glyph glyph-name="b" unicode="b" d="M133 -6 q-68 0 -104 33.5 q-36 33.5 -36 94.5 q0 30 7 57 l107 501 l148 20 l-48 -225 q28 17 46 22.5 q18 5.5 36 5.5 q118 0 118 -171 q0 -69 -26.5 -147.5 q-26.5 -78.5 -88 -134.5 q-61.5 -56 -159.5 -56 ZM189 91 q31 0 58 38.5 q27 38.5 43 96 q16 57.5 16 110.5 q0 40 -14 68 q-14 28 -39 28 q-15 0 -33.5 -4.5 q-18.5 -4.5 -25.5 -13.5 l-55 -254 q-3 -12 -3 -23 q0 -46 53 -46 Z" /><glyph glyph-name="c" unicode="c" d="M143 -6 q-74 0 -115 38.5 q-41 38.5 -41 120.5 q0 69 27.5 152 q27.5 83 88 143.5 q60.5 60.5 153.5 60.5 q60 0 85.5 -26 q25.5 -26 25.5 -66 q0 -35 -15 -54 q-15 -19 -38 -19 q-17 0 -35 12 q12 33 12 59 q0 19 -7 30 q-7 11 -21 11 q-30 0 -60 -49 q-30 -49 -49 -119 q-19 -70 -19 -126 q0 -49 17 -66.5 q17 -17.5 55 -17.5 q54 0 92.5 25 q38.5 25 84.5 76 l34 0 q-111 -185 -275 -185 Z" /><glyph glyph-name="d" unicode="d" d="M120 -6 q-57 0 -95 39 q-38 39 -38 122 q0 74 29.5 155.5 q29.5 81.5 88 138 q58.5 56.5 139.5 56.5 q41 0 61 -14 q20 -14 20 -37 l0 -4 l49 230 l148 20 l-115 -540 q-4 -15 -4 -32 q0 -20 9.5 -28.5 q9.5 -8.5 31.5 -8.5 q28 0 48.5 24 q20.5 24 32.5 64 l42 0 q-61 -179 -201 -179 q-41 0 -66.5 22 q-25.5 22 -31.5 64 q-26 -40 -62.5 -66 q-36.5 -26 -85.5 -26 ZM185 91 q24 0 48.5 22 q24.5 22 33.5 61 l0 5 l49 229 q-9 35 -41 35 q-40 0 -72 -46.5 q-32 -46.5 -50 -112 q-18 -65.5 -18 -115.5 q0 -50 14.5 -64 q14.5 -14 35.5 -14 Z" /><glyph glyph-name="e" unicode="e" d="M143 -6 q-74 0 -115 38.5 q-41 38.5 -41 120.5 q0 69 27 152 q27 83 88 143.5 q61 60.5 155 60.5 q110 0 110 -96 q0 -56 -32 -103 q-32 -47 -85 -75.5 q-53 -28.5 -113 -32.5 q-2 -30 -2 -40 q0 -49 17 -66.5 q17 -17.5 55 -17.5 q54 0 92.5 25 q38.5 25 84.5 76 l34 0 q-111 -185 -275 -185 ZM145 250 q37 2 70.5 26 q33.5 24 54 61 q20.5 37 20.5 78 q0 41 -25 41 q-36 0 -70.5 -63 q-34.5 -63 -49.5 -143 Z" /><glyph glyph-name="f" unicode="f" d="M-90 -250 q-47 0 -82.5 30.5 q-35.5 30.5 -35.5 77.5 q0 43 22 71 q22 28 57 44.5 q35 16.5 93 34.5 l121 571 q20 96 70.5 133 q50.5 37 111.5 37 q47 0 82.5 -30.5 q35.5 -30.5 35.5 -77.5 q0 -23 -3 -41 l-47 0 q2 22 2 27 q0 16 -11 25 q-11 9 -27 9 q-21 0 -41 -18.5 q-20 -18.5 -29 -63.5 l-17 -79 l73 0 l-7 -40 l-74 0 l-115 -540 q-20 -97 -69 -133.5 q-49 -36.5 -110 -36.5 ZM-113 -161 q40 0 57 78 l13 58 q-53 -18 -81.5 -41.5 q-28.5 -23.5 -28.5 -61.5 q0 -12 12 -22.5 q12 -10.5 28 -10.5 Z" /><glyph glyph-name="g" unicode="g" d="M177 -250 q-48 0 -80 25 q-32 25 -32 72 q0 57 46 91.5 q46 34.5 117 57.5 l12 53 q-51 -55 -120 -55 q-57 0 -95 39 q-38 39 -38 122 q0 74 29.5 155.5 q29.5 81.5 88 138 q58.5 56.5 139.5 56.5 q41 0 61 -14 q20 -14 20 -37 l0 -6 l11 52 l144 0 l-99 -464 q48 16 77 48 q29 32 49 95 l42 0 q-27 -89 -73 -130.5 q-46 -41.5 -104 -56.5 l-15 -72 q-20 -97 -69 -133.5 q-49 -36.5 -111 -36.5 ZM185 91 q23 0 47 21 q24 21 33 57 l51 237 q0 12 -10 24.5 q-10 12.5 -31 12.5 q-40 0 -72 -46.5 q-32 -46.5 -50 -112 q-18 -65.5 -18 -115.5 q0 -50 14.5 -64 q14.5 -14 35.5 -14 ZM154 -172 q17 0 33 23 q16 23 25 66 l6 29 q-98 -36 -98 -85 q0 -13 9 -23 q9 -10 25 -10 Z" /><glyph glyph-name="h" unicode="h" d="M361 -6 q-61 0 -89.5 32.5 q-28.5 32.5 -28.5 80.5 q0 21 5 47.5 q5 26.5 10.5 51.5 q5.5 25 7.5 32 q8 35 15 69 q7 34 7 55 q0 51 -36 51 q-26 0 -46 -25.5 q-20 -25.5 -32 -66.5 l-68 -321 l-144 0 l145 680 l148 20 l-54 -252 q50 56 117 56 q51 0 81 -28 q30 -28 30 -85 q0 -29 -7 -64.5 q-7 -35.5 -20 -86.5 q-8 -31 -14.5 -60.5 q-6.5 -29.5 -6.5 -46.5 q0 -20 9 -31 q9 -11 31 -11 q30 0 48 21.5 q18 21.5 36 66.5 l42 0 q-37 -110 -85.5 -147.5 q-48.5 -37.5 -100.5 -37.5 Z" /><glyph glyph-name="i" unicode="i" d="M167 554 q-33 0 -56 23 q-23 23 -23 56 q0 33 23 56.5 q23 23.5 56 23.5 q33 0 56.5 -23.5 q23.5 -23.5 23.5 -56.5 q0 -33 -23.5 -56 q-23.5 -23 -56.5 -23 ZM99 -6 q-48 0 -77.5 30 q-29.5 30 -29.5 90 q0 25 8 65 l68 321 l144 0 l-72 -340 q-4 -15 -4 -32 q0 -20 9.5 -28.5 q9.5 -8.5 31.5 -8.5 q29 0 54 24.5 q25 24.5 36 63.5 l42 0 q-37 -108 -95 -146.5 q-58 -38.5 -115 -38.5 Z" /><glyph glyph-name="j" unicode="j" d="M159 555 q-33 0 -56 23 q-23 23 -23 56 q0 33 23 56.5 q23 23.5 56 23.5 q33 0 56.5 -23.5 q23.5 -23.5 23.5 -56.5 q0 -33 -23.5 -56 q-23.5 -23 -56.5 -23 ZM-90 -250 q-48 0 -80 25 q-32 25 -32 72 q0 97 164 149 l107 504 l144 0 l-99 -464 q48 16 77 48 q29 32 49 95 l42 0 q-27 -89 -73 -130.5 q-46 -41.5 -104 -56.5 l-15 -72 q-20 -97 -69 -133.5 q-49 -36.5 -111 -36.5 ZM-113 -172 q17 0 33 23 q16 23 25 66 l6 29 q-98 -36 -98 -85 q0 -13 9 -23 q9 -10 25 -10 Z" /><glyph glyph-name="k" unicode="k" d="M376 -6 q-62 0 -94 29.5 q-32 29.5 -32 84.5 q0 24 6 52 l8 39 q4 17 4 37 q0 48 -36 48 q-16 0 -33.5 -9 q-17.5 -9 -40.5 -28 l-52 -247 l-144 0 l145 680 l148 20 l-75 -352 l193 152 l99 0 l-200 -139 q15 4 33 4 q54 0 82 -33 q28 -33 28 -84 q0 -21 -4 -38 l-11 -50 q-5 -18 -5 -32 q0 -37 39 -37 q30 0 48 21.5 q18 21.5 36 66.5 l42 0 q-62 -185 -184 -185 Z" /><glyph glyph-name="l" unicode="l" d="M99 -6 q-48 0 -77.5 30 q-29.5 30 -29.5 90 q0 25 8 65 l107 501 l148 20 l-115 -540 q-4 -15 -4 -32 q0 -20 9.5 -28.5 q9.5 -8.5 31.5 -8.5 q29 0 54 24.5 q25 24.5 36 63.5 l42 0 q-37 -108 -95 -146.5 q-58 -38.5 -115 -38.5 Z" /><glyph glyph-name="m" unicode="m" d="M608 -6 q-61 0 -89.5 32.5 q-28.5 32.5 -28.5 80.5 q0 21 5 47.5 q5 26.5 10.5 51.5 q5.5 25 7.5 32 q8 35 15 69 q7 34 7 55 q0 51 -36 51 q-26 0 -46 -25.5 q-20 -25.5 -32 -66.5 l-68 -321 l-144 0 l73 345 q3 12 3 25 q0 44 -30 44 q-28 0 -48.5 -25.5 q-20.5 -25.5 -32.5 -67.5 l-68 -321 l-144 0 l106 500 l144 0 l-11 -52 q51 57 122 57 q88 0 103 -86 q55 85 139 85 q51 0 81 -28 q30 -28 30 -85 q0 -29 -7 -64.5 q-7 -35.5 -20 -86.5 q-8 -31 -14.5 -60.5 q-6.5 -29.5 -6.5 -46.5 q0 -20 9 -31 q9 -11 31 -11 q30 0 48 21.5 q18 21.5 36 66.5 l42 0 q-37 -110 -85.5 -147.5 q-48.5 -37.5 -100.5 -37.5 Z" /><glyph glyph-name="n" unicode="n" d="M361 -6 q-61 0 -89.5 32.5 q-28.5 32.5 -28.5 80.5 q0 21 5 47.5 q5 26.5 10.5 51.5 q5.5 25 7.5 32 q8 35 15 69 q7 34 7 55 q0 51 -36 51 q-26 0 -46 -25.5 q-20 -25.5 -32 -66.5 l-68 -321 l-144 0 l106 500 l144 0 l-11 -52 q50 56 117 56 q51 0 81 -28 q30 -28 30 -85 q0 -29 -7 -64.5 q-7 -35.5 -20 -86.5 q-8 -31 -14.5 -60.5 q-6.5 -29.5 -6.5 -46.5 q0 -20 9 -31 q9 -11 31 -11 q30 0 48 21.5 q18 21.5 36 66.5 l42 0 q-37 -110 -85.5 -147.5 q-48.5 -37.5 -100.5 -37.5 Z" /><glyph glyph-name="o" unicode="o" d="M146 -4 q-74 0 -117 38 q-43 38 -43 120 q0 68 28 151 q28 83 90 143.5 q62 60.5 156 60.5 q128 0 128 -160 l0 -1 q3 -1 11 -1 q33 0 76 17.5 q43 17.5 78 42.5 l9 -27 q-29 -31 -75.5 -52.5 q-46.5 -21.5 -101.5 -30.5 q-8 -91 -41 -159 q-33 -68 -85 -105 q-52 -37 -113 -37 ZM186 86 q24 0 48 27.5 q24 27.5 42 75 q18 47.5 26 105.5 q-27 6 -27 42 q0 41 31 54 q-2 33 -10 45.5 q-8 12.5 -28 12.5 q-33 0 -64 -48 q-31 -48 -50 -115 q-19 -67 -19 -118 q0 -48 11 -64.5 q11 -16.5 40 -16.5 Z" /><glyph glyph-name="p" unicode="p" d="M76 537 l144 0 l-16 -75 q50 43 117 43 q56 0 89 -37 q33 -37 33 -121 q0 -79 -23 -159.5 q-23 -80.5 -78 -137 q-55 -56.5 -145 -56.5 q-64 0 -85 36 l-52 -244 l-151 -36 l167 787 ZM166 81 q48 0 79.5 45 q31.5 45 46 107.5 q14.5 62.5 14.5 116.5 q0 83 -50 83 q-18 0 -36.5 -13 q-18.5 -13 -32.5 -36 l-59 -280 q8 -23 38 -23 Z" /><glyph glyph-name="q" unicode="q" d="M239 49 q-51 -55 -119 -55 q-57 0 -95 39 q-38 39 -38 122 q0 74 29.5 155.5 q29.5 81.5 88 138 q58.5 56.5 139.5 56.5 q41 0 61 -14 q20 -14 20 -37 l0 -2 l10 48 l144 0 l-152 -714 l-151 -36 l63 299 ZM185 91 q22 0 44.5 19 q22.5 19 33.5 52 l53 247 q-8 34 -41 34 q-40 0 -72 -46.5 q-32 -46.5 -50 -112 q-18 -65.5 -18 -115.5 q0 -50 14.5 -64 q14.5 -14 35.5 -14 Z" /><glyph glyph-name="r" unicode="r" d="M68 500 l144 0 l-13 -62 q34 30 61.5 46 q27.5 16 59.5 16 q32 0 50.5 -22 q18.5 -22 18.5 -53 q0 -29 -19 -51 q-19 -22 -53 -22 q-22 0 -29.5 10.5 q-7.5 10.5 -11.5 30.5 q-3 13 -6 19 q-3 6 -11 6 q-21 0 -35.5 -8.5 q-14.5 -8.5 -37.5 -29.5 l-80 -380 l-144 0 l106 500 Z" /><glyph glyph-name="s" unicode="s" d="M114 -6 q-48 0 -81 18.5 q-33 18.5 -49 48 q-16 29.5 -16 61.5 q0 33 15.5 57.5 q15.5 24.5 37.5 35.5 q39 70 68 141.5 q29 71.5 55 154.5 l148 20 q5 -128 17 -277 q5 -60 5 -87 q0 -23 -4 -38 q47 27 72 50 l42 0 q-64 -74 -153 -125 q-29 -31 -71.5 -45.5 q-42.5 -14.5 -85.5 -14.5 ZM82 73 q37 0 62 22 q25 22 25 71 q0 30 -6 84 q-10 114 -13 153 q-24 -79 -81 -189 q23 -12 23 -35 q0 -19 -12.5 -34 q-12.5 -15 -31.5 -15 q-21 0 -27 13 q0 -36 14.5 -53 q14.5 -17 46.5 -17 Z" /><glyph glyph-name="t" unicode="t" d="M99 -6 q-48 0 -77.5 30 q-29.5 30 -29.5 90 q0 25 8 65 l60 281 l-33 0 l8 40 l33 0 l30 138 l148 20 l-34 -158 l60 0 l-8 -40 l-60 0 l-64 -300 q-4 -15 -4 -32 q0 -20 9.5 -28.5 q9.5 -8.5 31.5 -8.5 q29 0 54 24.5 q25 24.5 36 63.5 l42 0 q-37 -108 -95 -146.5 q-58 -38.5 -115 -38.5 Z" /><glyph glyph-name="u" unicode="u" d="M99 -6 q-48 0 -77.5 30 q-29.5 30 -29.5 90 q0 25 8 65 l68 321 l144 0 l-72 -340 q-3 -15 -3 -28 q0 -41 30 -41 q28 0 48 23.5 q20 23.5 32 64.5 l68 321 l144 0 l-72 -340 q-4 -15 -4 -32 q0 -20 9.5 -28.5 q9.5 -8.5 31.5 -8.5 q28 0 48.5 24 q20.5 24 32.5 64 l42 0 q-37 -108 -91.5 -146.5 q-54.5 -38.5 -109.5 -38.5 q-43 0 -68.5 24 q-25.5 24 -30.5 71 q-34 -55 -71.5 -75 q-37.5 -20 -76.5 -20 Z" /><glyph glyph-name="v" unicode="v" d="M114 -6 q-58 0 -90.5 29.5 q-32.5 29.5 -32.5 88.5 q0 24 5 48 l72 340 l144 0 l-72 -340 q-5 -25 -5 -36 q0 -33 34 -33 q46 0 85.5 58 q39.5 58 63.5 138 q24 80 24 138 q-2 -5 -13 -7.5 q-11 -2.5 -19 -2.5 q-17 0 -26.5 16 q-9.5 16 -9.5 35 q0 24 15.5 39 q15.5 15 46.5 15 q33 0 48 -24.5 q15 -24.5 15 -62.5 q0 -90 -31 -192.5 q-31 -102.5 -95 -174.5 q-64 -72 -159 -72 Z" /><glyph glyph-name="w" unicode="w" d="M99 -6 q-48 0 -77.5 30 q-29.5 30 -29.5 90 q0 25 8 65 l68 321 l144 0 l-72 -340 q-3 -12 -3 -25 q0 -44 30 -44 q28 0 48 23.5 q20 23.5 32 64.5 l68 321 l144 0 l-72 -340 q-5 -25 -5 -36 q0 -33 34 -33 q46 0 85.5 58 q39.5 58 63.5 138 q24 80 24 138 q-2 -5 -13 -7.5 q-11 -2.5 -19 -2.5 q-17 0 -26.5 16 q-9.5 16 -9.5 35 q0 24 15.5 39 q15.5 15 46.5 15 q33 0 48 -24.5 q15 -24.5 15 -62.5 q0 -90 -31 -192.5 q-31 -102.5 -95 -174.5 q-64 -72 -159 -72 q-49 0 -80 21 q-31 21 -40 63 q-56 -84 -142 -84 Z" /><glyph glyph-name="x" unicode="x" d="M360 -6 q-46 0 -76.5 42 q-30.5 42 -45.5 132 l-138 -168 l-72 0 l202 228 l-16 112 q-8 49 -16.5 66 q-8.5 17 -21.5 17 q-20 0 -45 -27.5 q-25 -27.5 -48.5 -83 q-23.5 -55.5 -40.5 -133.5 l-42 0 q29 136 86.5 231 q57.5 95 149.5 95 q54 0 78.5 -35.5 q24.5 -35.5 29.5 -83.5 l9 -76 q43 48 64 82.5 q21 34.5 23 61.5 q-14 -2 -17 -2 q-25 0 -36 15.5 q-11 15.5 -11 40.5 q0 25 19.5 37 q19.5 12 48.5 12 q26 0 41 -27.5 q15 -27.5 15 -63.5 q0 -44 -30 -88.5 q-30 -44.5 -109 -129.5 l9 -70 q6 -48 20.5 -67.5 q14.5 -19.5 41.5 -19.5 q29 0 54 24.5 q25 24.5 36 63.5 l42 0 q-36 -104 -92 -144.5 q-56 -40.5 -112 -40.5 Z" /><glyph glyph-name="y" unicode="y" d="M156 -250 q-48 0 -80 25 q-32 25 -32 72 q0 57 46 91.5 q46 34.5 117 57.5 l12 54 q-29 -32 -59 -44 q-30 -12 -61 -12 q-48 0 -77.5 30 q-29.5 30 -29.5 90 q0 25 8 65 l68 321 l144 0 l-72 -340 q-3 -12 -3 -25 q0 -44 30 -44 q26 0 46 22.5 q20 22.5 32 59.5 l70 327 l144 0 l-99 -464 q48 16 77 48 q29 32 49 95 l42 0 q-27 -89 -73 -130.5 q-46 -41.5 -104 -56.5 l-15 -72 q-20 -97 -69 -133.5 q-49 -36.5 -111 -36.5 ZM133 -172 q17 0 33 23 q16 23 25 66 l6 29 q-98 -36 -98 -85 q0 -13 9 -23 q9 -10 25 -10 Z" /><glyph glyph-name="z" unicode="z" d="M255 446 l-56 0 q-28 0 -41.5 -3 q-13.5 -3 -13.5 -13 q0 -2 5.5 -4.5 q5.5 -2.5 5.5 -17.5 q0 -26 -16 -39.5 q-16 -13.5 -38 -13.5 q-19 0 -32.5 11.5 q-13.5 11.5 -13.5 32.5 q0 21 14.5 45 q14.5 24 41 40 q26.5 16 60.5 16 l257 0 l-245 -423 q6 0 22 -2 q34 -4 54 -4 q43 0 47 20 q-9 1 -14 6.5 q-5 5.5 -5 14.5 q0 16 15 29.5 q15 13.5 41 13.5 q22 0 33 -13 q11 -13 11 -35 q0 -24 -15 -49 q-15 -25 -43 -41.5 q-28 -16.5 -64 -16.5 l-265 0 l255 446 Z" /><glyph glyph-name="zero" unicode="0" d="M223 -10 q-110 0 -156 67 q-46 67 -46 183 q0 138 43 256 q43 118 120.5 188.5 q77.5 70.5 176.5 70.5 q96 0 144.5 -64 q48.5 -64 48.5 -176 q0 -111 -34 -232.5 q-34 -121.5 -108.5 -207 q-74.5 -85.5 -188.5 -85.5 ZM236 65 q47 0 89 72 q42 72 67.5 185 q25.5 113 25.5 228 q0 63 -15 104.5 q-15 41.5 -43 41.5 q-46 0 -90 -73 q-44 -73 -72 -186 q-28 -113 -28 -222 q0 -150 66 -150 Z" /><glyph glyph-name="one" unicode="1" d="M153 624 l-95 0 l12 46 q55 0 114 15 q59 15 140 63 l-159 -748 l-144 0 l132 624 Z" /><glyph glyph-name="two" unicode="2" d="M313 -12 q-20 0 -41.5 5 q-21.5 5 -52.5 14 q-37 11 -61 16 q-24 5 -50 5 q-56 0 -110 -29 l-4 0 q-6 24 -6 47 q0 42 21.5 82.5 q21.5 40.5 52.5 74.5 q31 34 85 87 q57 55 92 94.5 q35 39.5 59 87 q24 47.5 24 99.5 q0 57 -18.5 90 q-18.5 33 -56.5 33 q-35 0 -57 -23.5 q-22 -23.5 -22 -57.5 q0 -34 13.5 -60.5 q13.5 -26.5 34.5 -38.5 l0 -4 q-17 -16 -37 -25 q-20 -9 -39 -9 q-31 0 -51.5 28 q-20.5 28 -20.5 76 q0 42 24.5 81 q24.5 39 72.5 64 q48 25 113 25 q87 0 140.5 -48.5 q53.5 -48.5 53.5 -133.5 q0 -54 -27.5 -100 q-27.5 -46 -67.5 -82 q-40 -36 -107 -87 q-66 -50 -105 -86 q-39 -36 -60 -76 q29 8 62 8 q24 0 50 -4 q26 -4 49 -9 q4 -1 26.5 -5.5 q22.5 -4.5 40.5 -4.5 q27 0 50 11.5 q23 11.5 48 39.5 l3 -2 q13 -37 13 -62 q0 -35 -18.5 -62.5 q-18.5 -27.5 -49.5 -43 q-31 -15.5 -66 -15.5 Z" /><glyph glyph-name="three" unicode="3" d="M205 -5 q-71 0 -135 35 q-64 35 -64 135 q0 65 31.5 104 q31.5 39 89.5 39 q68 0 78 -51 q-51 -3 -69.5 -35 q-18.5 -32 -18.5 -73 q0 -43 25 -67 q25 -24 61 -24 q32 0 61.5 19 q29.5 19 48.5 58 q19 39 19 94 q0 61 -33.5 113.5 q-33.5 52.5 -99.5 75.5 q53 15 92 47.5 q39 32.5 59 72 q20 39.5 20 75.5 q0 37 -19.5 59.5 q-19.5 22.5 -56.5 22.5 q-36 0 -57.5 -21.5 q-21.5 -21.5 -21.5 -56.5 q0 -24 9.5 -45 q9.5 -21 28.5 -26 q-37 -34 -76 -34 q-31 0 -51.5 22.5 q-20.5 22.5 -20.5 62.5 q0 45 27.5 79.5 q27.5 34.5 74.5 53.5 q47 19 105 19 q59 0 101 -20 q42 -20 63.5 -53 q21.5 -33 21.5 -73 q0 -52 -35 -102 q-35 -50 -102 -84 q63 -21 94.5 -64.5 q31.5 -43.5 31.5 -100.5 q0 -62 -35.5 -121.5 q-35.5 -59.5 -100 -97.5 q-64.5 -38 -146.5 -38 Z" /><glyph glyph-name="four" unicode="4" d="M477 314 q0 -39 -30 -69 q-30 -30 -77 -39 l-44 -206 l-139 0 l75 215 l-19 6 q-40 11 -63 16 q-23 5 -49 5 q-66 0 -108 -21 l-4 0 l-21 39 l0 5 q103 123 161 221 q58 98 58 187 q0 30 -8 62 q21 7 50 7 q45 0 70 -24.5 q25 -24.5 25 -62.5 q0 -45 -39.5 -106.5 q-39.5 -61.5 -97 -122 q-57.5 -60.5 -112.5 -104.5 l1 -3 q18 7 42.5 12.5 q24.5 5.5 46.5 5.5 q25 0 60 -6 q35 -6 44 -8 l81 233 l64 0 l-49 -232 q35 13 63 47 l3 -2 q16 -28 16 -55 Z" /><glyph glyph-name="five" unicode="5" d="M197 -5 q-88 0 -135 38 q-47 38 -47 108 q0 63 36 101.5 q36 38.5 94 38.5 q61 0 71 -51 q-41 -5 -65.5 -29.5 q-24.5 -24.5 -24.5 -63.5 q0 -35 21 -55 q21 -20 56 -20 q58 0 95 52 q37 52 37 133 q0 69 -29 106.5 q-29 37.5 -81 37.5 q-53 0 -131 -45 l-13 9 l77 379 q113 -13 168 -13 q91 0 174 28 q2 -22 2 -33 q0 -52 -27.5 -84 q-27.5 -32 -87.5 -32 q-23 0 -55 5 q-32 5 -61 11 q-25 5 -51 9 l-40 -181 q65 31 124 31 q82 0 129.5 -55.5 q47.5 -55.5 47.5 -150.5 q0 -81 -35.5 -143 q-35.5 -62 -100 -96.5 q-64.5 -34.5 -148.5 -34.5 Z" /><glyph glyph-name="six" unicode="6" d="M220 -5 q-105 0 -154.5 62.5 q-49.5 62.5 -49.5 201.5 q0 134 46.5 246.5 q46.5 112.5 126.5 178 q80 65.5 176 65.5 q66 0 105.5 -31 q39.5 -31 39.5 -82 q0 -39 -21 -65.5 q-21 -26.5 -52 -26.5 q-17 0 -31 9 q-14 9 -20 23 q16 8 24.5 24 q8.5 16 8.5 34 q0 23 -13.5 39.5 q-13.5 16.5 -38.5 16.5 q-41 0 -80.5 -43 q-39.5 -43 -70.5 -118.5 q-31 -75.5 -45 -168.5 l3 1 q18 46 59 70 q41 24 97 24 q69 0 111 -46.5 q42 -46.5 42 -126.5 q0 -74 -36 -140 q-36 -66 -96.5 -106.5 q-60.5 -40.5 -130.5 -40.5 ZM241 73 q28 0 54.5 27.5 q26.5 27.5 43.5 75 q17 47.5 17 103.5 q0 54 -21.5 79.5 q-21.5 25.5 -58.5 25.5 q-114 0 -114 -165 q0 -146 79 -146 Z" /><glyph glyph-name="seven" unicode="7" d="M175 -4 q-46 0 -73 32.5 q-27 32.5 -27 88.5 q0 60 30 123 q30 63 69.5 116.5 q39.5 53.5 101.5 126.5 q50 60 71.5 89.5 q21.5 29.5 21.5 48.5 q-18 -5 -35 -9 q-17 -4 -32 -4 q-26 0 -63 11 q-4 1 -25.5 6 q-21.5 5 -42.5 5 q-29 0 -52 -12 q-23 -12 -46 -40 l-3 1 q-13 29 -13 61 q0 53 38 84.5 q38 31.5 99 31.5 q22 0 42 -3.5 q20 -3.5 47 -11.5 q32 -9 54 -13 q22 -4 48 -4 q56 0 135 21 l1 -4 q0 -23 -23.5 -64.5 q-23.5 -41.5 -74.5 -120.5 q-60 -93 -99 -159.5 q-39 -66.5 -68 -141 q-29 -74.5 -29 -137.5 q0 -52 18 -103 q-35 -19 -70 -19 Z" /><glyph glyph-name="eight" unicode="8" d="M355 438 q42 -39 67.5 -68 q25.5 -29 43.5 -66.5 q18 -37.5 18 -80.5 q0 -62 -35.5 -114.5 q-35.5 -52.5 -96 -83.5 q-60.5 -31 -132.5 -31 q-64 0 -114.5 24.5 q-50.5 24.5 -79 68 q-28.5 43.5 -28.5 100.5 q0 70 46 122.5 q46 52.5 144 96.5 q-43 45 -66.5 84.5 q-23.5 39.5 -23.5 85.5 q0 50 29 91.5 q29 41.5 79.5 65.5 q50.5 24 111.5 24 q53 0 95 -18 q42 -18 65.5 -50.5 q23.5 -32.5 23.5 -72.5 q0 -98 -147 -178 ZM329 709 q-38 0 -63.5 -27.5 q-25.5 -27.5 -25.5 -70.5 q0 -36 19 -67.5 q19 -31.5 55 -66.5 q37 33 59 75 q22 42 22 81 q0 35 -17.5 55.5 q-17.5 20.5 -48.5 20.5 ZM225 63 q45 0 77.5 36 q32.5 36 32.5 85 q0 47 -27 88 q-27 41 -79 93 q-48 -32 -73.5 -78.5 q-25.5 -46.5 -25.5 -100.5 q0 -56 26 -89.5 q26 -33.5 69 -33.5 Z" /><glyph glyph-name="nine" unicode="9" d="M158 -3 q-66 0 -105.5 31 q-39.5 31 -39.5 82 q0 39 21 66 q21 27 51 27 q18 0 32.5 -9 q14.5 -9 18.5 -23 q-15 -9 -23.5 -24.5 q-8.5 -15.5 -8.5 -32.5 q0 -21 12.5 -35 q12.5 -14 37.5 -14 q41 0 79 43 q38 43 66 119 q28 76 40 169 l-3 -1 q-18 -46 -58.5 -70 q-40.5 -24 -96.5 -24 q-70 0 -112 46.5 q-42 46.5 -42 126.5 q0 73 38.5 136.5 q38.5 63.5 102.5 101.5 q64 38 138 38 q92 0 139 -66.5 q47 -66.5 47 -196.5 q0 -135 -44 -247 q-44 -112 -121 -177.5 q-77 -65.5 -169 -65.5 ZM224 374 q65 0 95 49 q30 49 30 135 q0 127 -73 127 q-33 0 -61 -30.5 q-28 -30.5 -44.5 -78.5 q-16.5 -48 -16.5 -99 q0 -53 19 -78 q19 -25 51 -25 Z" /><glyph glyph-name="asterisk" unicode="*" d="M248 368 q-15 0 -42 8 l24 145 q-29 -35 -51 -50 q-22 -15 -44 -15 q-22 0 -36 16 q-14 16 -14 41 q0 9 1 13 l127 41 q-70 12 -95.5 29.5 q-25.5 17.5 -25.5 43.5 q0 17 8 30 q8 13 29 31 l101 -89 q-17 61 -17 90 q0 63 54 63 q14 0 43 -8 l-25 -145 q29 35 52.5 51 q23.5 16 44.5 16 q23 0 37 -16 q14 -16 14 -41 q0 -5 -2 -13 l-130 -42 q69 -13 94.5 -30.5 q25.5 -17.5 25.5 -43.5 q0 -18 -7.5 -31 q-7.5 -13 -28.5 -30 l-100 89 q16 -64 16 -90 q0 -63 -53 -63 Z" /><glyph glyph-name="backslash" unicode="\" d="M42 750 l72 0 l212 -1000 l-72 0 l-212 1000 Z" /><glyph glyph-name="colon" unicode=":" d="M170 296 q-33 0 -56 23 q-23 23 -23 56 q0 33 23 56.5 q23 23.5 56 23.5 q33 0 56.5 -23.5 q23.5 -23.5 23.5 -56.5 q0 -33 -23.5 -56 q-23.5 -23 -56.5 -23 ZM120 56 q-33 0 -56 23 q-23 23 -23 56 q0 33 23 56.5 q23 23.5 56 23.5 q33 0 56.5 -23.5 q23.5 -23.5 23.5 -56.5 q0 -33 -23.5 -56 q-23.5 -23 -56.5 -23 Z" /><glyph glyph-name="comma" unicode="," d="M41 -126 q-9 6 -9 17 q0 12 6 21 q6 9 20 24 q14 15 20 24 q6 9 6 22 q0 11 -13 20 q-47 30 -47 73 q0 33 23 56.5 q23 23.5 56 23.5 q32 0 50 -21 q18 -21 18 -55 q0 -47 -35.5 -106 q-35.5 -59 -94.5 -99 Z" /><glyph glyph-name="exclam" unicode="!" d="M174 731 l154 21 l-145 -521 l-85 0 l76 500 ZM112 -6 q-33 0 -56.5 23.5 q-23.5 23.5 -23.5 56.5 q0 33 23.5 56 q23.5 23 56.5 23 q33 0 56 -23 q23 -23 23 -56 q0 -33 -23 -56.5 q-23 -23.5 -56 -23.5 Z" /><glyph glyph-name="numbersign" unicode="#" d="M481 415 l-25 -123 l94 0 l-15 -77 l-95 0 l-38 -187 l-73 0 l38 187 l-129 0 l-38 -187 l-73 0 l38 187 l-105 0 l15 77 l105 0 l25 123 l-102 0 l15 77 l103 0 l36 181 l74 0 l-37 -181 l129 0 l36 181 l74 0 l-37 -181 l97 0 l-15 -77 l-97 0 ZM407 415 l-128 0 l-25 -123 l128 0 l25 123 Z" /><glyph glyph-name="period" unicode="." d="M110 -4 q-33 0 -56 23 q-23 23 -23 56 q0 33 23 56.5 q23 23.5 56 23.5 q33 0 56.5 -23.5 q23.5 -23.5 23.5 -56.5 q0 -33 -23.5 -56 q-23.5 -23 -56.5 -23 Z" /><glyph glyph-name="question" unicode="?" d="M105 232 q0 48 14.5 86.5 q14.5 38.5 35 66.5 q20.5 28 53.5 65 q43 48 64.5 84.5 q21.5 36.5 21.5 85.5 q0 43 -17 67 q-17 24 -49 24 q-33 0 -55.5 -23.5 q-22.5 -23.5 -22.5 -58.5 q0 -26 13 -47.5 q13 -21.5 35 -31.5 l0 -4 q-18 -16 -37.5 -25 q-19.5 -9 -37.5 -9 q-32 0 -52.5 23.5 q-20.5 23.5 -20.5 60.5 q0 47 27.5 85 q27.5 38 74.5 60 q47 22 105 22 q81 0 128 -37 q47 -37 47 -101 q0 -39 -17 -71.5 q-17 -32.5 -42.5 -57.5 q-25.5 -25 -67.5 -59 q-45 -38 -71 -64 q-26 -26 -44.5 -61.5 q-18.5 -35.5 -18.5 -79.5 l-66 0 ZM126 0 q-32 0 -56 23.5 q-24 23.5 -24 56.5 q0 33 23.5 56 q23.5 23 56.5 23 q33 0 56.5 -23 q23.5 -23 23.5 -56 q0 -33 -23.5 -56.5 q-23.5 -23.5 -56.5 -23.5 Z" /><glyph glyph-name="quotedbl" unicode="&quot;" d="M155 752 l105 0 l-110 -232 l-70 0 l75 232 ZM312 752 l105 0 l-110 -232 l-70 0 l75 232 Z" /><glyph glyph-name="quotesingle" unicode="&#39;" d="M155 752 l105 0 l-110 -232 l-70 0 l75 232 Z" /><glyph glyph-name="semicolon" unicode=";" d="M173 252 q-33 0 -56 23 q-23 23 -23 56 q0 33 23 56.5 q23 23.5 56 23.5 q33 0 56.5 -23.5 q23.5 -23.5 23.5 -56.5 q0 -33 -23.5 -56 q-23.5 -23 -56.5 -23 ZM63 -110 q-9 6 -9 17 q0 12 6 21 q6 9 20 24 q14 15 20 24 q6 9 6 22 q0 11 -13 20 q-47 30 -47 73 q0 33 23 56.5 q23 23.5 56 23.5 q32 0 50 -21 q18 -21 18 -55 q0 -47 -35.5 -106 q-35.5 -59 -94.5 -99 Z" /><glyph glyph-name="slash" unicode="/" d="M223 750 l72 0 l-212 -1000 l-72 0 l212 1000 Z" /><glyph glyph-name="underscore" unicode="_" d="M54 79 l350 0 l-17 -79 l-351 0 l18 79 Z" /><glyph glyph-name="braceleft" unicode="{" d="M189 -250 q-65 0 -104 32 q-39 32 -39 87 q0 29 9 67 q9 38 27 97 q18 61 27 97 q9 36 9 64 q0 20 -9 28 q-9 8 -32 8 l-32 0 l11 51 l31 0 q35 0 51 27.5 q16 27.5 18 93.5 q6 137 25.5 211.5 q19.5 74.5 60.5 106.5 q41 32 115 32 l43 0 l-8 -50 q-51 0 -73.5 -20.5 q-22.5 -20.5 -34 -83.5 q-11.5 -63 -24.5 -217 q-4 -51 -25 -76.5 q-21 -25.5 -74 -48.5 q31 -14 43 -31.5 q12 -17.5 12 -46.5 q0 -22 -5.5 -50 q-5.5 -28 -18.5 -78 q-14 -52 -21 -89 q-7 -37 -7 -68 q0 -43 16.5 -68.5 q16.5 -25.5 47.5 -29.5 l-10 -45 l-29 0 Z" /><glyph glyph-name="braceright" unicode="}" d="M-56 -200 q50 0 72.5 20.5 q22.5 20.5 34.5 84 q12 63.5 24 216.5 q4 51 25 76.5 q21 25.5 75 48.5 q-31 14 -43.5 31.5 q-12.5 17.5 -12.5 46.5 q0 23 5.5 50.5 q5.5 27.5 18.5 77.5 q15 57 22 91.5 q7 34.5 7 65.5 q0 43 -17 68.5 q-17 25.5 -48 29.5 l10 45 l29 0 q66 0 104.5 -32 q38.5 -32 38.5 -87 q0 -29 -9 -67 q-9 -38 -27 -97 q-19 -67 -27 -100 q-8 -33 -8 -61 q0 -20 9 -28 q9 -8 32 -8 l31 0 l-10 -51 l-32 0 q-35 0 -51 -27.5 q-16 -27.5 -18 -93.5 q-6 -138 -25.5 -212 q-19.5 -74 -60.5 -106 q-41 -32 -115 -32 l-43 0 l9 50 Z" /><glyph glyph-name="bracketleft" unicode="[" d="M203 752 l213 0 l-11 -57 l-111 0 l-187 -878 l111 0 l-12 -57 l-213 0 l210 992 Z" /><glyph glyph-name="bracketright" unicode="]" d="M-48 -183 l111 0 l187 878 l-111 0 l11 57 l214 0 l-210 -992 l-214 0 l12 57 Z" /><glyph glyph-name="parenleft" unicode="(" d="M306 -237 q-75 76 -115.5 179.5 q-40.5 103.5 -40.5 221.5 q0 126 45.5 243 q45.5 117 129.5 210 q84 93 194 146 l13 -40 q-78 -46 -139 -139 q-61 -93 -95 -215 q-34 -122 -34 -251 q0 -95 19 -178.5 q19 -83.5 56 -147.5 l-33 -29 Z" /><glyph glyph-name="parenright" unicode=")" d="M-68 -197 q78 46 139 139 q61 93 95 215 q34 122 34 251 q0 95 -19 178.5 q-19 83.5 -56 147.5 l33 29 q75 -76 115 -179.5 q40 -103.5 40 -221.5 q0 -126 -45.5 -243 q-45.5 -117 -129 -209.5 q-83.5 -92.5 -193.5 -146.5 l-13 40 Z" /><glyph glyph-name="endash" unicode="&#x2013;" d="M37 301 l260 0 l-17 -79 l-261 0 l18 79 Z" /><glyph glyph-name="hyphen" unicode="-" d="M37 301 l200 0 l-17 -79 l-201 0 l18 79 Z" /><glyph glyph-name="quoteright" unicode="&#x2019;" d="M96 529 q21 22 33 41 q12 19 12 31 q0 7 -4.5 13 q-4.5 6 -13.5 13 q-14 11 -22 23 q-8 12 -8 32 q0 31 19 50.5 q19 19.5 48 19.5 q31 0 50.5 -19.5 q19.5 -19.5 19.5 -50.5 q0 -39 -32.5 -85.5 q-32.5 -46.5 -86.5 -82.5 l-15 15 Z" /><glyph glyph-name="dollar" unicode="$" d="M396 560 q19 14 30 37 q11 23 11 48 q0 24 -10.5 40.5 q-10.5 16.5 -30.5 24.5 l-56 -244 l23 -25 q39 -41 63.5 -72.5 q24.5 -31.5 41 -70.5 q16.5 -39 16.5 -84 q0 -63 -34 -116 q-34 -53 -92 -84.5 q-58 -31.5 -128 -31.5 l-29 -125 l-50 0 l29 128 q-76 12 -121 59 q-45 47 -45 116 q0 59 31 97 q31 38 80 38 q33 0 57 -18.5 q24 -18.5 29 -47.5 q-42 0 -68 -24.5 q-26 -24.5 -26 -64.5 q0 -35 21 -58 q21 -23 58 -28 l67 296 q-18 21 -19 22 q-54 64 -81 109.5 q-27 45.5 -27 98.5 q0 52 28.5 93.5 q28.5 41.5 78.5 65.5 q50 24 112 24 l2 0 l23 100 l51 0 l-24 -105 q59 -11 92.5 -47 q33.5 -36 33.5 -88 q0 -42 -21 -68 q-21 -26 -55 -26 q-38 0 -61 31 ZM264 614 q0 -48 37 -100 l45 199 q-37 -6 -59.5 -33 q-22.5 -27 -22.5 -66 ZM349 177 q0 59 -47 123 l-56 -246 q47 8 75 41.5 q28 33.5 28 81.5 Z" /><glyph glyph-name="plus" unicode="+" d="M157 301 l-142 0 l18 79 l142 0 l30 139 l80 0 l-30 -139 l146 0 l-17 -79 l-147 0 l-31 -144 l-80 0 l31 144 Z" /><glyph glyph-name="equal" unicode="=" d="M100 428 l368 0 l-23 -112 l-369 0 l24 112 ZM56 213 l368 0 l-23 -112 l-369 0 l24 112 Z" /><glyph glyph-name="greater" unicode="&gt;" d="M14 161 l222 116 l-182 95 l22 77 l277 -157 l-9 -41 l-337 -170 l7 80 Z" /><glyph glyph-name="less" unicode="&lt;" d="M7 238 l9 41 l337 170 l-7 -80 l-222 -116 l182 -95 l-22 -77 l-277 157 Z" /><glyph glyph-name="at" unicode="@" d="M238 -102 q-112 0 -179.5 59 q-67.5 59 -67.5 195 q0 123 55.5 228.5 q55.5 105.5 150.5 168.5 q95 63 209 63 q109 0 176.5 -59.5 q67.5 -59.5 67.5 -169.5 q0 -74 -30.5 -141 q-30.5 -67 -80 -107.5 q-49.5 -40.5 -104.5 -40.5 q-33 0 -53.5 16.5 q-20.5 16.5 -22.5 46.5 q-54 -73 -115 -73 q-38 0 -59 26.5 q-21 26.5 -21 76.5 q0 58 27 116.5 q27 58.5 69 96.5 q42 38 86 38 q15 0 27 -6 q12 -6 25 -21 l17 25 l75 -8 l-46 -176 q-1 -5 -7.5 -29 q-6.5 -24 -6.5 -40 q0 -13 4.5 -22 q4.5 -9 15.5 -9 q20 0 47 33 q27 33 46 85.5 q19 52.5 19 109.5 q0 78 -38.5 119 q-38.5 41 -109.5 41 q-85 0 -162 -54.5 q-77 -54.5 -123.5 -143 q-46.5 -88.5 -46.5 -184.5 q0 -93 40 -136 q40 -43 122 -43 q61 0 114 24 q53 24 85 65 q12 -6 19.5 -19 q7.5 -13 7.5 -33 q0 -39 -37.5 -65.5 q-37.5 -26.5 -91.5 -39.5 q-54 -13 -103 -13 ZM287 153 q15 0 30.5 9 q15.5 9 22.5 22 l50 189 q-11 10 -21 10 q-24 0 -49.5 -30.5 q-25.5 -30.5 -42.5 -74.5 q-17 -44 -17 -83 q0 -42 27 -42 Z" /><glyph glyph-name="ampersand" unicode="&amp;" d="M657 405 q3 -12 3 -23 q0 -35 -26.5 -66 q-26.5 -31 -66.5 -44 q-17 -5 -40 -5 q-9 -85 -50.5 -149.5 q-41.5 -64.5 -108.5 -100 q-67 -35.5 -150 -35.5 q-95 0 -149.5 48 q-54.5 48 -54.5 130 q0 55 24.5 108.5 q24.5 53.5 67 92.5 q42.5 39 93.5 54 l0 4 q-31 26 -44 55 q-13 29 -13 72 q0 54 29.5 101.5 q29.5 47.5 80 76 q50.5 28.5 109.5 28.5 q68 0 112 -39 q44 -39 44 -99 q0 -41 -21 -67 q-21 -26 -55 -26 q-38 0 -61 31 q18 11 29.5 34 q11.5 23 11.5 49 q0 28 -14 44 q-14 16 -38 16 q-26 0 -50 -20 q-24 -20 -38.5 -53.5 q-14.5 -33.5 -14.5 -70.5 q0 -50 27 -84.5 q27 -34.5 74 -46.5 l0 -4 q-47 -9 -88.5 -43.5 q-41.5 -34.5 -66 -84 q-24.5 -49.5 -24.5 -100.5 q0 -52 26 -81 q26 -29 72 -29 q43 0 85 24 q42 24 72 67 q30 43 40 97 q-22 0 -46 -6 q-55 -18 -79 -53 l-3 -1 q-11 14 -18 36 q-4 12 -4 26 q0 34 24 61 q24 27 60 38 q28 8 77 12 q33 2 57 7 q23 7 46.5 23.5 q23.5 16.5 35.5 32.5 l2 0 q15 -15 22 -37 Z" /><glyph glyph-name="copyright" unicode="©" d="M293 76 q-65 0 -121 34.5 q-56 34.5 -88.5 93 q-32.5 58.5 -32.5 127.5 q0 70 32.5 129 q32.5 59 88 93 q55.5 34 121.5 34 q65 0 120.5 -34 q55.5 -34 88.5 -92.5 q33 -58.5 33 -128.5 q0 -70 -33 -129 q-33 -59 -88.5 -93 q-55.5 -34 -120.5 -34 ZM295 118 q53 0 98.5 28 q45.5 28 72 77 q26.5 49 26.5 108 q0 59 -26.5 108 q-26.5 49 -72 77 q-45.5 28 -98.5 28 q-54 0 -99.5 -28 q-45.5 -28 -72 -77 q-26.5 -49 -26.5 -108 q0 -59 26.5 -108 q26.5 -49 72 -77 q45.5 -28 99.5 -28 ZM298 182 q-40 0 -73.5 21 q-33.5 21 -53 56.5 q-19.5 35.5 -19.5 76.5 q0 42 20 75.5 q20 33.5 54 53 q34 19.5 74 19.5 q47 -2 80.5 -28.5 q33.5 -26.5 43.5 -66.5 l-47 -18 q-6 19 -12.5 30.5 q-6.5 11.5 -21.5 21 q-15 9.5 -41 9.5 q-41 0 -68 -23.5 q-27 -23.5 -27 -67.5 q0 -45 27.5 -76 q27.5 -31 67.5 -31 q23 0 43.5 12 q20.5 12 31.5 33 l44 -29 q-21 -32 -53.5 -50 q-32.5 -18 -69.5 -18 Z" /></font>
</defs>
</svg>
